Coordinates
version=1
nRows=26
nColumns=24
inDegrees=yes

Units are S.I. units (second, meters, Newtons, ...)
Angles are in degrees.

endheader
time	pelvis_tilt	pelvis_list	pelvis_rotation	pelvis_tx	pelvis_ty	pelvis_tz	hip_flexion_r	hip_adduction_r	hip_rotation_r	knee_angle_r	ankle_angle_r	subtalar_angle_r	mtp_angle_r	hip_flexion_l	hip_adduction_l	hip_rotation_l	knee_angle_l	ankle_angle_l	subtalar_angle_l	mtp_angle_l	lumbar_extension	lumbar_bending	lumbar_rotation
      3.56500000	     -5.78151394	     -1.91291823	     -6.26490969	     -0.86848574	     -0.03899930	     -0.14931377	     -7.09800187	      6.40550919	      7.53670344	    -28.57807885	      1.76667845	     15.92874740	     23.28738088	     38.25519971	     -2.95708733	    -16.73270351	    -20.62517470	      7.77327992	     14.46890467	    -11.80884243	      6.06589144	      2.37855590	      9.80796778
      3.57000000	     -5.86123403	     -1.55894002	     -6.20038618	     -0.86055443	     -0.03947258	     -0.15006264	     -6.87849316	      5.75552174	      6.82108037	    -29.50751841	      0.61115748	     17.08077841	     24.33186625	     38.10588289	     -2.42586766	    -16.58349246	    -21.00700560	      6.99247354	     13.47251216	    -11.89250470	      6.36572894	      1.98664286	      9.76045743
      3.57500000	     -5.92298637	     -1.15986652	     -6.05951418	     -0.85242419	     -0.03981794	     -0.15091336	     -6.69804984	      5.03081480	      6.00571397	    -30.28223799	     -1.03915655	     17.93778239	     26.27892275	     37.90058276	     -1.77801670	    -16.29688567	    -21.28030890	      6.03373559	     12.36153107	    -11.64792753	      6.69092598	      1.53360602	      9.63185544
      3.58000000	     -6.02709974	     -0.71895648	     -5.98119375	     -0.84446966	     -0.04014909	     -0.15167484	     -6.37487024	      4.25303292	      5.29531774	    -31.16987592	     -2.74988375	     18.89458832	     28.31324070	     37.77733252	     -1.15573013	    -16.16506308	    -21.58054148	      4.93482547	     11.26072745	    -11.25771903	      7.02493126	      1.03478019	      9.50534338
      3.58500000	     -6.23490179	     -0.19031135	     -5.95765744	     -0.83646748	     -0.04053585	     -0.15238546	     -5.83101730	      3.35589002	      4.59634252	    -32.30166502	     -4.22474510	     20.30793997	     29.29716553	     37.76908431	     -0.49682320	    -16.03574991	    -21.91630472	      4.00221475	     10.30723036	    -11.38793161	      7.49349707	      0.47793218	      9.54746136
      3.59000000	     -6.27717383	      0.24129932	     -5.75480264	     -0.82858264	     -0.04073313	     -0.15340652	     -5.50160882	      2.51952460	      3.67394130	    -33.15752210	     -6.51845159	     21.09651458	     31.94633884	     37.61387876	      0.26160662	    -15.42596068	    -22.23672495	      2.92421024	      9.00981392	    -11.25948008	      7.73388818	     -0.01592883	      9.34122655
      3.59500000	     -6.48511555	      0.75467673	     -5.71095948	     -0.82085510	     -0.04109066	     -0.15424504	     -4.82185091	      1.59508351	      3.00033085	    -34.38293628	     -8.40034495	     22.43922505	     33.23555882	     37.68571276	      0.95416733	    -15.06455004	    -22.67709637	      1.99282748	      7.86040718	    -11.51861851	      8.13505955	     -0.54753947	      9.33775293
      3.60000000	     -6.62639482	      1.29666406	     -5.54214824	     -0.81290633	     -0.04131954	     -0.15513560	     -4.26867695	      0.63973645	      2.23808435	    -35.40807355	    -10.84452784	     23.22903498	     35.31888729	     37.66467291	      1.76836502	    -14.52715007	    -23.11532914	      1.21282605	      6.80181572	    -11.94983878	      8.50615297	     -1.15907814	      9.16020465
      3.60500000	     -6.87242673	      1.86347441	     -5.51426832	     -0.80515331	     -0.04166987	     -0.15592357	     -3.44775395	     -0.33228381	      1.75923161	    -36.75030591	    -12.97756169	     24.38049176	     36.07058028	     37.77778951	      2.51435710	    -14.07924149	    -23.59912435	      0.51843627	      5.70749358	    -12.44395267	      8.96067191	     -1.74187802	      9.18552778
      3.61000000	     -7.07788857	      2.39910123	     -5.37293447	     -0.79746812	     -0.04201824	     -0.15685489	     -2.65754235	     -1.27717128	      1.18707386	    -38.06453874	    -15.35564314	     25.24204917	     36.95493033	     37.86696575	      3.31880486	    -13.46540796	    -24.12235255	     -0.05471271	      4.63537843	    -13.08420714	      9.34516609	     -2.31503919	      9.09280084
      3.61500000	     -7.27672396	      2.93886051	     -5.22853384	     -0.78985130	     -0.04237219	     -0.15775466	     -1.82417489	     -2.21081447	      0.69780954	    -39.43426473	    -17.82251103	     25.88000683	     37.61568197	     37.94638080	      4.11480944	    -12.91767700	    -24.66323392	     -0.45270310	      3.71529882	    -13.77290569	      9.70643524	     -2.89816458	      9.01305490
      3.62000000	     -7.46033764	      3.49380079	     -5.00255062	     -0.78221354	     -0.04274915	     -0.15871234	     -1.00309076	     -3.15976801	      0.17068945	    -40.78581974	    -20.39409000	     26.27695079	     38.38617879	     38.00960354	      4.95179904	    -12.43206161	    -25.25438188	     -0.51608914	      3.08443175	    -14.90769259	     10.04775618	     -3.52290390	      8.82024294
      3.62500000	     -7.63326181	      4.02938701	     -4.86544364	     -0.77475180	     -0.04308312	     -0.15953541	     -0.08930842	     -4.03227823	     -0.10253604	    -42.33290764	    -22.79667360	     26.49290139	     37.96326633	     38.01125019	      5.71970709	    -12.01099660	    -25.72515132	     -0.71208206	      2.30911772	    -15.36602996	     10.35186339	     -4.10311084	      8.78376390
      3.63000000	     -7.78857361	      4.61063891	     -4.64803992	     -0.76732635	     -0.04342412	     -0.16040608	      0.83127238	     -4.94821778	     -0.42587738	    -43.92774102	    -25.10926109	     26.46040361	     37.35921963	     37.96568670	      6.55218955	    -11.68703818	    -26.14330452	     -0.83617756	      1.72776667	    -15.67409860	     10.62247018	     -4.76426721	      8.64638218
      3.63500000	     -7.98618754	      5.11998624	     -4.35164564	     -0.75997283	     -0.04383255	     -0.16148016	      1.81462365	     -5.77535235	     -0.74750850	    -45.56179424	    -27.33147389	     26.26517141	     36.40740111	     37.93572264	      7.38513060	    -11.26028935	    -26.52526295	     -0.85050566	      1.06435619	    -16.02607353	     10.91349318	     -5.33870015	      8.41607740
      3.64000000	     -8.13274469	      5.67101954	     -4.04828394	     -0.75268816	     -0.04415543	     -0.16247816	      2.78809417	     -6.63147875	     -1.04657970	    -47.25589522	    -29.40836335	     25.73493424	     35.18312060	     37.80326944	      8.23251669	    -10.98916793	    -26.82542779	     -0.80654152	      0.58469896	    -16.22231396	     11.13760880	     -5.97670641	      8.19510221
      3.64500000	     -8.30658334	      6.21316911	     -3.64210182	     -0.74547964	     -0.04453733	     -0.16358105	      3.81212939	     -7.47537372	     -1.41226750	    -49.05838006	    -31.06258249	     25.08931787	     33.31660307	     37.67299133	      9.11108666	    -10.73698309	    -27.08629181	     -0.69102443	      0.25337658	    -16.27851611	     11.36353352	     -6.63153385	      7.84782930
      3.65000000	     -8.39620950	      6.76656300	     -3.29360553	     -0.73836943	     -0.04474177	     -0.16466276	      4.78833951	     -8.32452535	     -1.68972020	    -50.81847851	    -32.71767812	     24.08126218	     31.77567579	     37.38589031	      9.97773897	    -10.57292940	    -27.21969388	     -0.59696560	     -0.09237232	    -16.15720340	     11.48228085	     -7.27535093	      7.61448990
      3.65500000	     -8.48506048	      7.32943676	     -2.93905872	     -0.73128903	     -0.04488441	     -0.16572180	      5.78405568	     -9.15469801	     -1.89917263	    -52.57551605	    -34.09731895	     22.83989345	     30.29610033	     37.03013593	     10.85744334	    -10.41177062	    -27.23869278	     -0.47344622	     -0.39593682	    -15.94632511	     11.59620738	     -7.94376826	      7.28549847
      3.66000000	     -8.60351367	      7.83753974	     -2.44422593	     -0.72434898	     -0.04508900	     -0.16690315	      6.81126837	     -9.93502829	     -2.22959595	    -54.43390171	    -34.76646594	     21.69207018	     28.14104026	     36.70462373	     11.73777548	    -10.20577451	    -27.26696477	     -0.39300590	     -0.56556322	    -15.29060071	     11.69009001	     -8.58870330	      6.84520215
      3.66500000	     -8.66528247	      8.35072953	     -2.01817119	     -0.71747811	     -0.04511457	     -0.16803714	      7.80650314	    -10.69871069	     -2.44696785	    -56.19276584	    -35.34707845	     20.29428396	     26.67186323	     36.25281291	     12.60225776	    -10.02424913	    -27.17567438	     -0.33222968	     -0.80863884	    -14.65537278	     11.71877237	     -9.21631801	      6.47167132
      3.67000000	     -8.70490252	      8.85279469	     -1.63029702	     -0.71066398	     -0.04500233	     -0.16913955	      8.80253246	    -11.42748677	     -2.58038164	    -57.87038953	    -35.73442814	     18.81050080	     25.68794523	     35.73149418	     13.44303815	     -9.83125025	    -27.02345908	     -0.19740015	     -1.01233556	    -14.23869346	     11.71632977	     -9.81577996	      6.17107162
      3.67500000	     -8.72869916	      9.31458020	     -1.23893322	     -0.70398958	     -0.04481704	     -0.17017404	      9.79475689	    -12.07115022	     -2.66871537	    -59.50499782	    -35.69808795	     17.26921519	     24.96525139	     35.18434141	     14.23242235	     -9.68240311	    -26.86477366	     -0.02552117	     -1.18796835	    -13.91094388	     11.66542901	    -10.39431665	      5.74961138
      3.68000000	     -8.75973530	      9.68072657	     -0.80925396	     -0.69741784	     -0.04457259	     -0.17122014	     10.79418764	    -12.58997054	     -2.78707416	    -61.10327520	    -35.18512355	     15.79148065	     24.13755730	     34.62205927	     14.95206785	     -9.37508717	    -26.70679406	      0.17519986	     -1.30134410	    -13.40882415	     11.59507584	    -10.86731541	      5.36360381
      3.68500000	     -8.76437489	     10.04202659	     -0.42848531	     -0.69084783	     -0.04416945	     -0.17215208	     11.78329337	    -13.06171213	     -2.80498717	    -62.59120717	    -34.49735753	     14.39497918	     23.71639677	     33.99037028	     15.63005753	     -9.14195114	    -26.48685841	      0.40377765	     -1.37873011	    -12.99861714	     11.50546841	    -11.34534582	      4.92376099
      3.69000000	     -8.76680264	     10.32332256	     -0.02277032	     -0.68439712	     -0.04367473	     -0.17302690	     12.77541961	    -13.41398100	     -2.82730249	    -64.02490277	    -33.43796796	     13.15462934	     23.17095717	     33.33654192	     16.22992067	     -8.80163297	    -26.25656203	      0.59403121	     -1.36987120	    -12.31056489	     11.38209887	    -11.74993774	      4.46212271
